<svg width="100" height="25" viewBox="0 0 100 25" fill="none" xmlns="http://www.w3.org/2000/svg">
<path d="M2.45117 23.1875H23.8262V1.8125H2.45117V23.1875ZM19.712 10.4433H15.1954V5.92667H19.712V10.4433ZM6.56451 5.92667H11.0837V14.5567H19.712V19.0733H6.56451V5.92667ZM37.7454 1.8125C35.6315 1.8125 33.5652 2.43932 31.8077 3.61367C30.0501 4.78803 28.6803 6.45719 27.8714 8.41008C27.0624 10.363 26.8509 12.5118 27.2632 14.585C27.6756 16.6582 28.6934 18.5625 30.1881 20.0572C31.6828 21.5519 33.5871 22.5697 35.6603 22.9822C37.7335 23.3945 39.8824 23.1829 41.8353 22.374C43.7882 21.5651 45.4573 20.1952 46.6317 18.4377C47.806 16.6801 48.4329 14.6137 48.4329 12.5C48.4295 9.6665 47.3024 6.95003 45.2989 4.94646C43.2953 2.94288 40.5789 1.81581 37.7454 1.8125ZM37.7454 19.0733C36.4453 19.0733 35.1744 18.6878 34.0934 17.9655C33.0124 17.2432 32.1699 16.2167 31.6724 15.0155C31.1749 13.8144 31.0447 12.4927 31.2983 11.2176C31.5519 9.9425 32.178 8.77125 33.0973 7.85195C34.0166 6.93266 35.1879 6.30661 36.4629 6.05298C37.738 5.79934 39.0597 5.92952 40.2609 6.42703C41.4619 6.92455 42.4886 7.76707 43.2109 8.84808C43.9332 9.929 44.3187 11.1999 44.3187 12.5C44.316 14.2426 43.6226 15.913 42.3904 17.1452C41.1583 18.3773 39.4879 19.0707 37.7454 19.0733ZM86.6779 1.8125C84.5637 1.81234 82.4976 2.43901 80.7399 3.61327C78.9823 4.78752 77.6124 6.45662 76.8033 8.4095C75.9943 10.3623 75.7824 12.5113 76.1948 14.5845C76.607 16.6577 77.6249 18.5622 79.1195 20.0569C80.6141 21.5517 82.5184 22.5697 84.592 22.9821C86.6645 23.3945 88.8137 23.1829 90.767 22.3741C92.7195 21.5652 94.3887 20.1953 95.5629 18.4377C96.7379 16.6802 97.3645 14.6138 97.3645 12.5C97.3612 9.66667 96.2345 6.9503 94.2312 4.94675C92.2279 2.94319 89.5112 1.81603 86.6779 1.8125ZM86.6779 19.0733C85.3779 19.0735 84.107 18.6881 83.0257 17.9659C81.9446 17.2437 81.1019 16.2172 80.6043 15.0161C80.1066 13.815 79.9764 12.4932 80.2299 11.2181C80.4834 9.943 81.1094 8.77167 82.0287 7.85225C82.9479 6.93287 84.1195 6.30673 85.3945 6.05303C86.6695 5.79933 87.9912 5.92946 89.192 6.42696C90.3937 6.92445 91.4204 7.76697 92.1429 8.848C92.8645 9.929 93.2504 11.1999 93.2504 12.5C93.2479 14.2424 92.5545 15.9127 91.322 17.1448C90.0904 18.377 88.4204 19.0705 86.6779 19.0733ZM62.2112 1.8125C60.0974 1.8125 58.031 2.43932 56.2735 3.61367C54.5159 4.78803 53.1461 6.45719 52.3372 8.41008C51.5283 10.363 51.3167 12.5118 51.729 14.585C52.1414 16.6582 53.1593 18.5625 54.6539 20.0572C56.1486 21.5519 58.0529 22.5697 60.1261 22.9822C62.1993 23.3945 64.3482 23.1829 66.3011 22.374C68.254 21.5651 69.9231 20.1952 71.0975 18.4377C72.2719 16.6801 72.8987 14.6137 72.8987 12.5C72.8954 9.6665 71.7683 6.95003 69.7647 4.94646C67.7611 2.94288 65.0447 1.81581 62.2112 1.8125ZM62.2112 19.0733C60.9999 19.0739 59.812 18.7398 58.7786 18.1079C57.7453 17.476 56.9065 16.5709 56.3551 15.4924C55.8038 14.4139 55.561 13.204 55.6539 11.9963C55.7467 10.7886 56.1714 9.63 56.8811 8.64842C57.5909 7.66688 58.558 6.90051 59.6758 6.43393C60.7936 5.96733 62.0186 5.81868 63.2155 6.00437C64.4125 6.19006 65.5349 6.70286 66.4588 7.48618C67.3827 8.2695 68.0722 9.29292 68.4512 10.4433H62.2112V14.5567H68.4512C68.0171 15.8694 67.1808 17.0123 66.0607 17.8229C64.9407 18.6337 63.5939 19.0711 62.2112 19.0733Z" fill="#DAC5A7"/>
</svg>
