<svg width="53" height="35" viewBox="0 0 53 35" fill="none" xmlns="http://www.w3.org/2000/svg">
<path d="M17.8184 35H23.1316L21.5848 33.4532C21.1746 33.043 20.6182 32.8125 20.0381 32.8125H17.8184C9.36148 32.8125 2.50586 25.9569 2.50586 17.5C2.50586 9.04313 9.36148 2.18751 17.8184 2.1875H35.3184C43.7752 2.1875 50.6309 9.04313 50.6309 17.5C50.6309 25.9569 43.7752 32.8125 35.3184 32.8125H28.772C27.9017 32.8125 27.0671 32.4668 26.4517 31.8515L24.6396 30.0393C23.614 29.0137 22.2229 28.4375 20.7725 28.4375H17.8184C11.7777 28.4375 6.88086 23.5406 6.88086 17.5C6.88086 11.4593 11.7777 6.5625 17.8184 6.5625H35.3184C41.359 6.5625 46.2559 11.4593 46.2559 17.5C46.2559 23.5406 41.359 28.4375 35.3184 28.4375H31.1149C30.2447 28.4375 29.4101 28.0918 28.7947 27.4765L26.9825 25.6643C25.9569 24.6387 24.5659 24.0625 23.1155 24.0625H17.8184C14.194 24.0625 11.2559 21.1243 11.2559 17.5C11.2559 13.8757 14.194 10.9375 17.8184 10.9375H35.3184C38.9427 10.9375 41.8809 13.8757 41.8809 17.5C41.8809 21.0802 39.0139 23.9908 35.4507 24.0612L35.45 24.0625H33.8493C32.979 24.0625 32.1445 23.7168 31.5291 23.1015L29.7169 21.2893C28.8754 20.4477 27.7878 19.9088 26.6233 19.7424L26.5684 19.6875H17.8184C16.6102 19.6875 15.6309 18.7081 15.6309 17.5C15.6309 16.2919 16.6102 15.3125 17.8184 15.3125H35.3184C36.5265 15.3125 37.5059 16.2919 37.5059 17.5C37.5059 18.7081 36.5265 19.6875 35.3184 19.6875H30.9434L32.4902 21.2343C32.9004 21.6445 33.4568 21.875 34.0369 21.875H35.3184C37.7346 21.875 39.6934 19.9162 39.6934 17.5C39.6934 15.0838 37.7346 13.125 35.3184 13.125H17.8184C15.4021 13.125 13.4434 15.0838 13.4434 17.5C13.4434 19.9162 15.4021 21.875 17.8184 21.875H25.8499C26.7202 21.875 27.5547 22.2207 28.1701 22.836L29.9823 24.6482C31.0079 25.6738 32.3989 26.25 33.8493 26.25H35.8652V26.2332C40.443 25.9509 44.0684 22.1488 44.0684 17.5C44.0684 12.6676 40.1508 8.75 35.3184 8.75H17.8184C12.9859 8.75 9.06836 12.6676 9.06836 17.5C9.06836 22.3325 12.9859 26.25 17.8184 26.25H23.1155C23.9858 26.25 24.8204 26.5957 25.4358 27.211L27.248 29.0232C28.2736 30.0488 29.6645 30.625 31.1149 30.625H35.3184C42.5671 30.625 48.4434 24.7488 48.4434 17.5C48.4434 10.2512 42.5671 4.375 35.3184 4.375H17.8184C10.5696 4.375 4.69336 10.2512 4.69336 17.5C4.69336 24.7488 10.5696 30.625 17.8184 30.625H20.7725C21.6428 30.625 22.4774 30.9707 23.0928 31.586L24.905 33.3982C25.9306 34.4238 27.3216 35 28.772 35H35.3184C44.9833 35 52.8184 27.165 52.8184 17.5C52.8184 7.83501 44.9833 -8.44939e-07 35.3184 0L17.8184 3.61606e-06C8.15337 4.461e-06 0.318359 7.83502 0.318359 17.5C0.31836 27.165 8.15338 35 17.8184 35Z" fill="#DAC5A7"/>
</svg>
