<svg width="141" height="31" viewBox="0 0 141 31" fill="none" xmlns="http://www.w3.org/2000/svg">
<path d="M23.1612 13.871C22.7822 14.2523 22.492 14.7125 22.3112 15.2187C22.1304 15.725 22.0635 16.2649 22.1152 16.8L22.0972 16.782C22.1504 17.4119 22.0654 18.0457 21.8483 18.6394C21.6312 19.233 21.2872 19.7721 20.8403 20.2191C20.3933 20.666 19.8542 21.0101 19.2605 21.2271C18.6669 21.4442 18.033 21.5292 17.4032 21.476L17.4212 21.494C16.6678 21.4239 15.9111 21.5878 15.2542 21.9635C14.5974 22.3392 14.0724 22.9083 13.7509 23.5933C13.4294 24.2783 13.3269 25.0457 13.4575 25.7911C13.5882 26.5364 13.9455 27.2233 14.4808 27.7581C15.0161 28.2929 15.7033 28.6496 16.4487 28.7795C17.1942 28.9095 17.9615 28.8063 18.6462 28.4842C19.3309 28.162 19.8995 27.6366 20.2746 26.9794C20.6497 26.3222 20.813 25.5654 20.7422 24.812L20.7612 24.83C20.708 24.2002 20.7929 23.5663 21.01 22.9726C21.2271 22.379 21.5712 21.8399 22.0181 21.3929C22.4651 20.946 23.0042 20.6019 23.5978 20.3849C24.1915 20.1678 24.8253 20.0828 25.4552 20.136L25.4362 20.118C26.0516 20.1733 26.6711 20.0724 27.2372 19.8246C27.8032 19.5768 28.2976 19.1901 28.6744 18.7004C29.0512 18.2107 29.2984 17.6337 29.3928 17.0231C29.4873 16.4124 29.4261 15.7878 29.2149 15.207C29.0037 14.6263 28.6493 14.1083 28.1846 13.701C27.7199 13.2937 27.1599 13.0103 26.5565 12.8771C25.9531 12.7439 25.3258 12.7651 24.7328 12.9388C24.1398 13.1126 23.6003 13.4332 23.1642 13.871H23.1612Z" fill="#DAC5A7"/>
<path d="M15.7843 19.136L15.7653 19.118C16.3006 19.1719 16.8412 19.1062 17.3481 18.9256C17.8549 18.745 18.3153 18.4541 18.6959 18.0738C19.0764 17.6935 19.3678 17.2333 19.5487 16.7266C19.7297 16.2199 19.7958 15.6794 19.7423 15.144L19.7613 15.162C19.7081 14.5321 19.7931 13.8983 20.0101 13.3046C20.2272 12.711 20.5713 12.1719 21.0182 11.7249C21.4652 11.278 22.0043 10.9339 22.5979 10.7169C23.1916 10.4998 23.8254 10.4148 24.4553 10.468L24.4363 10.45C25.1898 10.5208 25.9467 10.3574 26.6039 9.9821C27.2612 9.60684 27.7866 9.03797 28.1086 8.3531C28.4306 7.66824 28.5335 6.90071 28.4033 6.1552C28.2731 5.40969 27.9161 4.72251 27.3809 4.18737C26.8458 3.65224 26.1586 3.2952 25.4131 3.16498C24.6676 3.03475 23.9001 3.13766 23.2152 3.45968C22.5303 3.78169 21.9615 4.30714 21.5862 4.96435C21.2109 5.62155 21.0475 6.37852 21.1183 7.132L21.1003 7.113C21.1536 7.74289 21.0688 8.37683 20.8518 8.97055C20.6348 9.56427 20.2907 10.1035 19.8438 10.5505C19.3968 10.9974 18.8576 11.3415 18.2639 11.5585C17.6701 11.7755 17.0362 11.8603 16.4063 11.807L16.4243 11.826C15.889 11.7721 15.3483 11.8378 14.8415 12.0184C14.3347 12.1989 13.8743 12.4899 13.4937 12.8702C13.1131 13.2505 12.8218 13.7107 12.6408 14.2174C12.4599 14.7241 12.3938 15.2646 12.4473 15.8L12.4293 15.782C12.4823 16.4118 12.3972 17.0456 12.1801 17.6392C11.9629 18.2327 11.6189 18.7718 11.172 19.2187C10.7251 19.6656 10.1861 20.0096 9.5925 20.2268C8.99894 20.4439 8.36515 20.529 7.73534 20.476L7.75334 20.494C6.99986 20.4232 6.24289 20.5866 5.58568 20.9619C4.92848 21.3372 4.40303 21.906 4.08102 22.5909C3.759 23.2758 3.65608 24.0433 3.78631 24.7888C3.91654 25.5343 4.27358 26.2215 4.80871 26.7566C5.34385 27.2918 6.03103 27.6488 6.77654 27.779C7.52205 27.9092 8.28958 27.8063 8.97445 27.4843C9.65931 27.1623 10.2282 26.6369 10.6034 25.9797C10.9787 25.3224 11.1421 24.5655 11.0713 23.812L11.0903 23.83C11.0371 23.2001 11.1221 22.5663 11.3392 21.9726C11.5562 21.379 11.9003 20.8399 12.3472 20.3929C12.7942 19.946 13.3333 19.6019 13.9269 19.3849C14.5206 19.1678 15.1544 19.0828 15.7843 19.136Z" fill="#DAC5A7"/>
<path d="M9.0824 17.1289C9.46142 16.7477 9.7516 16.2875 9.93224 15.7812C10.1129 15.2749 10.1795 14.7349 10.1274 14.1999L10.1464 14.2179C10.0932 13.5879 10.1781 12.9538 10.3954 12.36C10.6126 11.7662 10.9568 11.227 11.404 10.78C11.8512 10.3331 12.3905 9.98907 12.9844 9.77212C13.5783 9.55516 14.2124 9.47046 14.8424 9.52394L14.8234 9.50594C15.5766 9.57651 16.3333 9.41302 16.9902 9.03778C17.6471 8.66255 18.1722 8.09382 18.4941 7.40917C18.8159 6.72451 18.9187 5.95726 18.7885 5.21203C18.6583 4.4668 18.3013 3.77988 17.7664 3.24494C17.2315 2.71 16.5445 2.35308 15.7993 2.22286C15.0541 2.09263 14.2868 2.19545 13.6022 2.51727C12.9175 2.83909 12.3488 3.36426 11.9736 4.02116C11.5983 4.67806 11.4348 5.43472 11.5054 6.18794L11.4874 6.16994C11.5406 6.79979 11.4556 7.43366 11.2385 8.0273C11.0214 8.62094 10.6774 9.16005 10.2305 9.60701C9.78351 10.054 9.24439 10.398 8.65075 10.615C8.05711 10.8321 7.42325 10.9171 6.7934 10.8639L6.8114 10.8819C6.19597 10.8267 5.57656 10.9278 5.01058 11.1757C4.4446 11.4236 3.95035 11.8104 3.57364 12.3002C3.19693 12.7899 2.94995 13.3669 2.85557 13.9775C2.7612 14.5882 2.82249 15.2128 3.03376 15.7934C3.24503 16.3741 3.59946 16.892 4.06419 17.2992C4.52892 17.7065 5.08892 17.9898 5.6923 18.123C6.29567 18.2561 6.9229 18.2348 7.51587 18.0611C8.10883 17.8873 8.64833 17.5667 9.08439 17.1289H9.0824Z" fill="#DAC5A7"/>
<path d="M40.0596 7.15503H43.0296V21.608H40.0596V7.15503Z" fill="#DAC5A7"/>
<path d="M44.7111 16.6591C44.707 15.6205 45.0112 14.6039 45.5852 13.7383C46.1592 12.8727 46.9772 12.1969 47.9356 11.7966C48.894 11.3962 49.9496 11.2893 50.9688 11.4894C51.988 11.6895 52.9249 12.1875 53.6608 12.9205C54.3967 13.6534 54.8985 14.5883 55.1027 15.6067C55.3069 16.6251 55.2042 17.6812 54.8077 18.6412C54.4112 19.6011 53.7387 20.4219 52.8754 20.9993C52.012 21.5768 50.9968 21.8851 49.9581 21.8851C49.2687 21.893 48.5846 21.7633 47.9458 21.5037C47.307 21.2441 46.7264 20.8598 46.2379 20.3733C45.7493 19.8867 45.3627 19.3076 45.1006 18.6699C44.8384 18.0322 44.706 17.3486 44.7111 16.6591ZM52.2351 16.6591C52.2227 16.2114 52.0786 15.7773 51.8209 15.411C51.5631 15.0448 51.2031 14.7626 50.7859 14.5999C50.3686 14.4371 49.9127 14.4009 49.475 14.4959C49.0373 14.5909 48.6373 14.8127 48.325 15.1338C48.0128 15.4548 47.802 15.8608 47.7193 16.301C47.6365 16.7411 47.6852 17.1959 47.8595 17.6085C48.0338 18.0211 48.3258 18.3731 48.699 18.6206C49.0723 18.8681 49.5103 19.0001 49.9581 19.0001C50.2648 19.0083 50.5699 18.9528 50.8542 18.8372C51.1384 18.7216 51.3956 18.5484 51.6095 18.3285C51.8234 18.1085 51.9895 17.8466 52.0971 17.5593C52.2048 17.272 52.2518 16.9655 52.2351 16.6591Z" fill="#DAC5A7"/>
<path d="M67.0421 11.7091V21.1091C67.0421 24.4351 64.4481 25.8411 61.8151 25.8411C60.8881 25.9105 59.9598 25.7232 59.1321 25.2999C58.3045 24.8765 57.6094 24.2334 57.1231 23.4411L59.6571 21.9761C59.8615 22.3891 60.1872 22.7298 60.5905 22.9527C60.9939 23.1755 61.4557 23.2699 61.9141 23.2231C62.2071 23.2637 62.5055 23.2379 62.7872 23.1476C63.0688 23.0573 63.3266 22.9048 63.5414 22.7015C63.7562 22.4981 63.9225 22.2491 64.0281 21.9727C64.1336 21.6964 64.1756 21.3999 64.1511 21.1051V20.2001C63.8033 20.6256 63.3607 20.9637 62.8586 21.1872C62.3565 21.4107 61.8091 21.5134 61.2601 21.4871C59.9539 21.4459 58.715 20.8981 57.8056 19.9595C56.8962 19.021 56.3877 17.7654 56.3877 16.4586C56.3877 15.1518 56.8962 13.8962 57.8056 12.9577C58.715 12.0191 59.9539 11.4713 61.2601 11.4301C61.8091 11.4038 62.3565 11.5065 62.8586 11.73C63.3607 11.9535 63.8033 12.2916 64.1511 12.7171V11.7071L67.0421 11.7091ZM64.1521 16.4601C64.1721 15.9815 64.0483 15.5078 63.7968 15.1001C63.5453 14.6923 63.1775 14.3692 62.7408 14.1723C62.3041 13.9753 61.8185 13.9136 61.3464 13.995C60.8743 14.0764 60.4374 14.2972 60.0918 14.6291C59.7463 14.9609 59.508 15.3885 59.4075 15.8569C59.3071 16.3253 59.3491 16.8131 59.5283 17.2574C59.7074 17.7017 60.0154 18.0823 60.4126 18.3501C60.8098 18.6179 61.2781 18.7607 61.7571 18.7601C62.0692 18.7819 62.3823 18.7381 62.6764 18.6315C62.9705 18.5249 63.239 18.3578 63.4646 18.1412C63.6902 17.9245 63.868 17.663 63.9864 17.3734C64.1048 17.0839 64.1613 16.7728 64.1521 16.4601Z" fill="#DAC5A7"/>
<path d="M68.7238 16.6591C68.7197 15.6205 69.0238 14.6039 69.5979 13.7383C70.1719 12.8727 70.9899 12.1969 71.9483 11.7966C72.9067 11.3962 73.9623 11.2893 74.9815 11.4894C76.0007 11.6895 76.9376 12.1875 77.6735 12.9205C78.4094 13.6534 78.9112 14.5883 79.1154 15.6067C79.3196 16.6251 79.2169 17.6812 78.8204 18.6412C78.4239 19.6011 77.7514 20.4219 76.8881 20.9993C76.0247 21.5768 75.0095 21.8851 73.9708 21.8851C73.2814 21.893 72.5972 21.7633 71.9585 21.5037C71.3197 21.2441 70.7391 20.8598 70.2506 20.3733C69.762 19.8867 69.3754 19.3076 69.1133 18.6699C68.8511 18.0322 68.7187 17.3486 68.7238 16.6591ZM76.2478 16.6591C76.2354 16.2114 76.0913 15.7773 75.8336 15.411C75.5758 15.0448 75.2158 14.7626 74.7986 14.5999C74.3813 14.4371 73.9253 14.4009 73.4877 14.4959C73.05 14.5909 72.65 14.8127 72.3377 15.1338C72.0255 15.4548 71.8147 15.8608 71.7319 16.301C71.6491 16.7411 71.6979 17.1959 71.8722 17.6085C72.0465 18.0211 72.3385 18.3731 72.7117 18.6206C73.085 18.8681 73.5229 19.0001 73.9708 19.0001C74.2775 19.0083 74.5826 18.9528 74.8668 18.8372C75.1511 18.7216 75.4083 18.5484 75.6222 18.3285C75.8361 18.1085 76.0022 17.8466 76.1098 17.5593C76.2175 17.272 76.2645 16.9655 76.2478 16.6591Z" fill="#DAC5A7"/>
<path d="M80.6035 9.05593C80.6035 8.70348 80.708 8.35895 80.9038 8.06591C81.0996 7.77286 81.378 7.54445 81.7036 7.40958C82.0292 7.2747 82.3875 7.23941 82.7332 7.30817C83.0788 7.37693 83.3964 7.54665 83.6456 7.79587C83.8948 8.04508 84.0645 8.3626 84.1333 8.70828C84.202 9.05395 84.1667 9.41225 84.0319 9.73787C83.897 10.0635 83.6686 10.3418 83.3755 10.5376C83.0825 10.7334 82.738 10.8379 82.3855 10.8379C81.9144 10.8332 81.4638 10.644 81.1306 10.3108C80.7975 9.97763 80.6082 9.52709 80.6035 9.05593ZM80.9035 11.7089H83.8745V21.6089H80.8995L80.9035 11.7089Z" fill="#DAC5A7"/>
<path d="M96.6979 16.659C96.7322 17.3133 96.6369 17.9679 96.4173 18.5852C96.1978 19.2025 95.8584 19.7703 95.4186 20.256C94.9789 20.7416 94.4474 21.1356 93.8549 21.4152C93.2623 21.6947 92.6204 21.8544 91.9659 21.885C91.4155 21.915 90.8654 21.8222 90.3553 21.6133C89.8452 21.4043 89.3881 21.0845 89.0169 20.677V25.568H86.0469V11.709H89.0169V12.639C89.3882 12.2318 89.8455 11.9122 90.3555 11.7035C90.8656 11.4947 91.4156 11.402 91.9659 11.432C92.6205 11.4625 93.2626 11.6221 93.8553 11.9017C94.448 12.1813 94.9795 12.5753 95.4193 13.0611C95.8591 13.5469 96.1985 14.1149 96.4179 14.7324C96.6373 15.3498 96.7325 16.0046 96.6979 16.659ZM93.7279 16.659C93.7163 16.1957 93.5683 15.7461 93.3024 15.3664C93.0365 14.9868 92.6646 14.694 92.2332 14.5248C91.8017 14.3555 91.3299 14.3172 90.8768 14.4148C90.4237 14.5123 90.0095 14.7413 89.6859 15.0731C89.3623 15.405 89.1438 15.8248 89.0577 16.2803C88.9716 16.7357 89.0217 17.2063 89.2018 17.6334C89.3818 18.0605 89.6839 18.4249 90.0701 18.6812C90.4563 18.9374 90.9094 19.0741 91.3729 19.074C91.6911 19.0882 92.0087 19.0349 92.3049 18.9177C92.601 18.8006 92.8691 18.6221 93.0914 18.3941C93.3138 18.166 93.4854 17.8936 93.5951 17.5946C93.7048 17.2956 93.7501 16.9767 93.7279 16.659Z" fill="#DAC5A7"/>
<path d="M105.863 18.6381C105.863 20.9151 103.884 21.8851 101.746 21.8851C100.882 21.9633 100.015 21.7807 99.2561 21.3606C98.4972 20.9406 97.8818 20.3026 97.4893 19.5291L100.062 18.0641C100.166 18.4216 100.39 18.7327 100.696 18.9452C101.001 19.1578 101.371 19.2591 101.742 19.2321C102.454 19.2321 102.811 19.0141 102.811 18.6191C102.811 17.5291 97.9403 18.1041 97.9403 14.6791C97.9403 12.5201 99.7623 11.4321 101.821 11.4321C102.595 11.4076 103.361 11.5912 104.04 11.9637C104.719 12.3363 105.286 12.8841 105.681 13.5501L103.147 14.9161C103.036 14.6568 102.851 14.4359 102.615 14.281C102.379 14.1261 102.103 14.0441 101.821 14.0451C101.306 14.0451 100.989 14.2451 100.989 14.5991C100.993 15.7281 105.863 14.9751 105.863 18.6381Z" fill="#DAC5A7"/>
<path d="M116.712 11.709V21.609H113.742V20.678C113.399 21.0888 112.964 21.4125 112.472 21.6225C111.98 21.8325 111.446 21.9228 110.912 21.886C108.912 21.886 107.212 20.461 107.212 17.786V11.709H110.182V17.351C110.157 17.5868 110.184 17.8252 110.261 18.0495C110.337 18.2739 110.462 18.4789 110.626 18.6502C110.79 18.8215 110.989 18.955 111.21 19.0415C111.43 19.128 111.667 19.1654 111.904 19.151C112.993 19.151 113.745 18.518 113.745 17.112V11.712L116.712 11.709Z" fill="#DAC5A7"/>
<path d="M133.743 15.53V21.608H130.773V15.787C130.773 14.797 130.298 14.164 129.348 14.164C128.358 14.164 127.803 14.857 127.803 16.025V21.608H124.834V15.787C124.834 14.797 124.359 14.164 123.408 14.164C122.418 14.164 121.864 14.857 121.864 16.025V21.608H118.894V11.708H121.864V12.618C122.172 12.2143 122.576 11.8941 123.039 11.6868C123.503 11.4794 124.011 11.3915 124.517 11.431C125.025 11.4061 125.531 11.5134 125.986 11.7423C126.44 11.9711 126.827 12.3139 127.11 12.737C127.439 12.2943 127.875 11.9423 128.377 11.7139C128.879 11.4855 129.431 11.3882 129.981 11.431C132.254 11.432 133.743 13.055 133.743 15.53Z" fill="#DAC5A7"/>
<path d="M136.254 11.648C137.471 11.648 138.458 10.6612 138.458 9.44399C138.458 8.22675 137.471 7.23999 136.254 7.23999C135.037 7.23999 134.05 8.22675 134.05 9.44399C134.05 10.6612 135.037 11.648 136.254 11.648Z" fill="#DAC5A7"/>
</svg>
