<svg width="153" height="19" viewBox="0 0 153 19" fill="none" xmlns="http://www.w3.org/2000/svg">
<path d="M76.6627 16.3741H71.5427V2.68611H76.6627V16.3741ZM72.0427 15.8741H76.1627V3.18611H72.0427V15.8741ZM83.7867 16.3741H78.7697V2.68611H89.2517C90.7533 2.56451 92.2487 2.98608 93.4657 3.87411C93.9896 4.35342 94.3957 4.9473 94.6522 5.6094C94.9088 6.27151 95.0089 6.98394 94.9447 7.69111C95.0195 8.91308 94.6306 10.1183 93.8557 11.0661C92.9387 12.1181 91.4127 12.6601 89.3207 12.6791C88.7937 12.6931 84.8447 12.6791 83.7897 12.6791L83.7867 16.3741ZM79.2667 15.8741H83.2867V12.1741H83.5377C83.5887 12.1741 88.7157 12.1901 89.3087 12.1741C91.2577 12.1571 92.6587 11.6741 93.4777 10.7311C94.1675 9.87356 94.5101 8.78826 94.4377 7.69011C94.4992 7.05648 94.4139 6.4172 94.1885 5.82185C93.963 5.2265 93.6035 4.69108 93.1377 4.25711C92.0093 3.44721 90.6287 3.06704 89.2447 3.18511H79.2697L79.2667 15.8741ZM88.1897 9.60411H83.2527V5.87811H88.2227C88.575 5.82943 88.9339 5.87055 89.266 5.99764C89.5982 6.12474 89.8929 6.33369 90.1227 6.60511C90.3312 6.95205 90.4295 7.35409 90.4047 7.75811C90.4234 8.13321 90.3424 8.50658 90.1697 8.84011C89.9326 9.12599 89.6259 9.34606 89.2791 9.47916C88.9324 9.61226 88.5572 9.65391 88.1897 9.60011V9.60411ZM83.7527 9.10411H88.1897C89.0097 9.10411 89.5177 8.93311 89.7427 8.58111C89.8666 8.32526 89.9227 8.04187 89.9057 7.75811C89.9276 7.46017 89.863 7.16225 89.7197 6.90011L89.7137 6.89111C89.4757 6.54111 89.0027 6.37811 88.2227 6.37811H83.7527V9.10411ZM104.07 16.5761C99.5797 16.5761 96.8997 15.4611 95.8787 13.1681C95.7116 12.7252 95.5982 12.2639 95.5407 11.7941L95.4967 11.5061H100.839L100.874 11.7161C100.915 11.9293 101.006 12.13 101.138 12.3021C101.349 12.5571 102.053 12.9851 104.389 12.9851C107.197 12.9851 107.197 12.4921 107.197 12.2271C107.197 11.7801 106.872 11.6271 104.582 11.3831L104.147 11.3421C103.285 11.2611 102.195 11.1581 101.697 11.1151C97.4967 10.7351 95.6217 9.43011 95.6217 6.88511C95.6217 4.21211 98.8127 2.48511 103.752 2.48511C107.781 2.48511 110.377 3.54711 111.466 5.64411C111.724 6.13189 111.898 6.6601 111.979 7.20611L112.014 7.48711H106.666L106.644 7.26111C106.623 7.08449 106.548 6.9188 106.428 6.78711C106.228 6.51911 105.596 6.07611 103.634 6.07611C101.225 6.07611 100.893 6.38411 100.893 6.71611C100.893 7.15911 101.654 7.31611 104.093 7.57711C105.11 7.66011 106.745 7.82811 107.305 7.89611C110.826 8.27811 112.397 9.55111 112.397 12.0251C112.398 14.1001 110.953 16.5761 104.07 16.5761ZM96.0807 12.0061C96.1308 12.3359 96.217 12.6591 96.3377 12.9701C97.2677 15.0591 99.7977 16.0761 104.07 16.0761C107.642 16.0761 111.901 15.3761 111.901 12.0251C111.901 9.83211 110.511 8.74611 107.252 8.39311C106.692 8.32511 105.067 8.15811 104.052 8.07411C101.452 7.79211 100.395 7.64211 100.395 6.71611C100.395 5.75811 101.534 5.57611 103.636 5.57611C105.297 5.57611 106.37 5.87611 106.825 6.48111C106.949 6.63016 107.043 6.80206 107.101 6.98711H111.435C111.348 6.60036 111.21 6.2268 111.025 5.87611C110.025 3.95711 107.582 2.98511 103.754 2.98511C99.1187 2.98511 96.1237 4.51611 96.1237 6.88511C96.1237 9.14511 97.8047 10.2611 101.743 10.6171C102.243 10.6601 103.332 10.7631 104.196 10.8451L104.634 10.8861C106.761 11.1101 107.699 11.2501 107.699 12.2271C107.699 13.2791 106.486 13.4851 104.391 13.4851C102.453 13.4851 101.229 13.1941 100.756 12.6211C100.61 12.4384 100.5 12.2297 100.432 12.0061H96.0807ZM121.897 16.5591C116.677 16.5591 113.797 14.4481 113.797 10.6141V2.68611H118.849V10.6141C118.849 11.9291 120.026 12.6831 122.077 12.6831C124.037 12.6831 125.254 11.8961 125.254 10.6311V2.68611H130.254V11.0341C130.259 14.5451 127.21 16.5591 121.894 16.5591H121.897ZM114.297 3.18611V10.6141C114.297 15.3521 119.055 16.0591 121.897 16.0591C124.835 16.0591 129.762 15.4061 129.762 11.0341V3.18611H125.762V10.6311C125.762 12.1811 124.318 13.1831 122.085 13.1831C119.751 13.1831 118.357 12.2231 118.357 10.6141V3.18611H114.297ZM151.442 16.3741H146.674V10.1941L143.97 16.3741H139.811L137.135 10.2061V16.3741H132.35V2.68611H138.644L141.914 10.2331L145.342 2.68611H151.448L151.442 16.3741ZM147.174 15.8741H150.942V3.18611H145.66L141.898 11.4651L138.312 3.18611H132.846V15.8741H136.631V7.80011L140.131 15.8771H143.631L147.168 7.81211L147.174 15.8741ZM7.02373 2.93611H2.46973V16.1241H15.0537V12.6131H7.02373V2.93611ZM24.2457 2.63611C18.4327 2.63611 15.3757 5.39111 15.3757 9.43611C15.3757 14.0061 18.5847 16.3241 24.2457 16.3241C30.4777 16.3241 33.0987 13.6361 33.0987 9.43611C33.0987 5.17111 30.1417 2.63411 24.2457 2.63411V2.63611ZM24.2287 6.06311C24.6244 6.06125 25.0199 6.08429 25.4127 6.13211L20.3217 11.2231C20.0808 10.6782 19.9633 10.0867 19.9777 9.49111C19.9777 7.42211 21.0197 6.06111 24.2287 6.06111V6.06311ZM24.2457 12.9511C23.8644 12.9528 23.4834 12.9314 23.1047 12.8871L28.2047 7.78711C28.4366 8.32301 28.5476 8.90344 28.5297 9.48711C28.5297 11.5001 27.5697 12.9491 24.2457 12.9491V12.9511ZM42.1217 11.1511H46.8087C46.7397 11.4764 46.5959 11.7811 46.3887 12.0411C45.417 12.8327 44.1769 13.2179 42.9277 13.1161C42.2989 13.1834 41.6631 13.1147 41.0632 12.9147C40.4633 12.7148 39.9133 12.3882 39.4507 11.9571C38.9768 11.262 38.7517 10.4272 38.8117 9.58811C38.735 8.70885 38.9798 7.83163 39.5007 7.11911C40.1557 6.37911 41.2647 6.06011 42.8947 6.06011C43.9318 5.97424 44.9676 6.24059 45.8347 6.81611C46.108 7.03319 46.3123 7.32502 46.4227 7.65611H50.7697C50.7381 7.11058 50.6069 6.57544 50.3827 6.07711C49.3417 3.96011 46.9217 2.70011 42.8067 2.70011C39.2277 2.70011 36.8257 3.79211 35.4987 5.43911C34.6223 6.62847 34.1724 8.07855 34.2217 9.55511C34.165 11.0651 34.6033 12.5522 35.4697 13.7901C36.7807 15.4901 39.1157 16.3261 41.9217 16.3261C43.7872 16.4562 45.64 15.9337 47.1627 14.8481L47.2807 16.1241H50.8917V8.31211H42.1217V11.1511ZM61.1407 2.63311C55.3287 2.63311 52.2707 5.38811 52.2707 9.43311C52.2707 14.0031 55.4787 16.3211 61.1407 16.3211C67.3737 16.3211 69.9947 13.6331 69.9947 9.43311C69.9947 5.17111 67.0377 2.63411 61.1407 2.63411V2.63311ZM61.1247 6.06011C61.51 6.05897 61.895 6.08101 62.2777 6.12611L57.2067 11.2001C56.9733 10.6612 56.8597 10.0782 56.8737 9.49111C56.8697 7.42211 57.9157 6.06111 61.1247 6.06111V6.06011ZM61.1407 12.9481C60.7493 12.9498 60.3582 12.927 59.9697 12.8801L65.0867 7.76211C65.3274 8.30514 65.4426 8.89543 65.4237 9.48911C65.4257 11.5001 64.4697 12.9491 61.1407 12.9491V12.9481Z" fill="#DAC5A7"/>
</svg>
