<svg width="79" height="31" viewBox="0 0 79 31" fill="none" xmlns="http://www.w3.org/2000/svg">
<g clip-path="url(#clip0_33_19948)">
<path d="M18.9087 0.5C15.8626 0.5 12.9413 1.71005 10.7874 3.86396L3.758 10.8934C1.60409 13.0473 0.394043 15.9686 0.394043 19.0147C0.394043 25.3579 5.53618 30.5 11.8793 30.5C14.9254 30.5 17.8467 29.2899 20.0006 27.136L24.8629 22.2737C24.8629 22.2736 24.863 22.2738 24.8629 22.2737L39.03 8.1066C40.0587 7.07791 41.4539 6.5 42.9087 6.5C45.3443 6.5 47.4092 8.08741 48.1251 10.2841L52.5962 5.81296C50.5565 2.61834 46.98 0.5 42.9087 0.5C39.8626 0.5 36.9413 1.71005 34.7874 3.86396L15.758 22.8934C14.7293 23.9221 13.3341 24.5 11.8793 24.5C8.84988 24.5 6.39404 22.0442 6.39404 19.0147C6.39404 17.5599 6.97195 16.1647 8.00064 15.136L15.03 8.1066C16.0587 7.07791 17.4539 6.5 18.9087 6.5C21.3444 6.5 23.4092 8.08748 24.1251 10.2842L28.5963 5.81307C26.5566 2.6184 22.9801 0.5 18.9087 0.5Z" fill="#DAC5A7"/>
<path d="M39.7582 22.8934C38.7295 23.9221 37.3343 24.5 35.8795 24.5C33.4442 24.5 31.3795 22.913 30.6634 20.7167L26.1924 25.1877C28.2322 28.3819 31.8085 30.5 35.8795 30.5C38.9256 30.5 41.8469 29.2899 44.0008 27.136L63.0302 8.1066C64.0589 7.07791 65.4541 6.5 66.9089 6.5C69.9384 6.5 72.3942 8.95584 72.3942 11.9853C72.3942 13.4401 71.8163 14.8353 70.7876 15.864L63.7582 22.8934C62.7295 23.9221 61.3343 24.5 59.8795 24.5C57.444 24.5 55.3792 22.9127 54.6632 20.7162L50.1922 25.1873C52.2319 28.3818 55.8083 30.5 59.8795 30.5C62.9256 30.5 65.8469 29.2899 68.0008 27.136L75.0302 20.1066C77.1841 17.9527 78.3942 15.0314 78.3942 11.9853C78.3942 5.64214 73.2521 0.5 66.9089 0.5C63.8628 0.5 60.9415 1.71005 58.7876 3.86396L39.7582 22.8934Z" fill="#DAC5A7"/>
</g>
<defs>
<clipPath id="clip0_33_19948">
<rect width="78" height="30" fill="white" transform="translate(0.394043 0.5)"/>
</clipPath>
</defs>
</svg>
